<svg width="132" height="132" viewBox="0 0 132 132" fill="none" xmlns="http://www.w3.org/2000/svg">
<g clip-path="url(#clip0)">
<rect width="132" height="132" fill="white"/>
<path d="M48.15 16.95C40.55 19.45 34.65 23.6 30.45 29.4C26.35 35.1 24.3 42.2 24.3 50.7C24.3 54.5 24.65 57.1 25.35 58.5C26.05 59.9 26.4 60.75 26.4 61.05C15.7 61.05 10.35 56.5 10.35 47.4C10.35 41.2 12.7 35 17.4 28.8C22.2 22.5 28.3 17.4 35.7 13.5C43.2 9.49999 50.65 7.49999 58.05 7.49999C61.75 7.49999 65.55 8.19999 69.45 9.59999L66 88.65L99 9.59999H120.6L104.85 120H83.25L92.85 52.65L64.65 120H44.1L47.1 52.35L22.05 120H10.05L48.15 16.95Z" fill="black"/>
</g>
<defs>
<clipPath id="clip0">
<rect width="132" height="132" fill="white"/>
</clipPath>
</defs>
</svg>
